<svg xmlns="http://www.w3.org/2000/svg" height="40px" viewBox="0 -960 960 960" width="40px" fill="#FFFFFF"><path d="M243.95-254.31q54.9-37.97 111.72-59.73 56.82-21.75 124.33-21.75 67.51 0 124.41 21.75 56.9 21.76 111.8 59.73 42.02-45.05 65.98-101.87Q806.15-413 806.15-480q0-136.38-94.88-231.27-94.89-94.88-231.27-94.88t-231.27 94.88Q153.85-616.38 153.85-480q0 67 24.03 123.82 24.04 56.82 66.07 101.87ZM395.29-497.4q-34.32-34.32-34.32-84.7 0-50.39 34.32-84.71 34.33-34.32 84.71-34.32 50.38 0 84.71 34.32 34.32 34.32 34.32 84.71 0 50.38-34.32 84.7-34.33 34.32-84.71 34.32-50.38 0-84.71-34.32ZM480-120q-75.15 0-140.59-28.04t-114.38-76.99q-48.95-48.94-76.99-114.38Q120-404.85 120-480q0-75.31 28.04-140.67 28.04-65.36 76.99-114.3 48.94-48.95 114.38-76.99Q404.85-840 480-840q75.31 0 140.67 28.04 65.36 28.04 114.3 76.99 48.95 48.94 76.99 114.3Q840-555.31 840-480q0 75.15-28.04 140.59t-76.99 114.38q-48.94 48.95-114.3 76.99Q555.31-120 480-120Zm111.28-53.27q55.16-19.42 98.05-56.78-42.89-33.41-96.07-52.66-53.18-19.24-113.26-19.24-60.08 0-113.64 18.86-53.57 18.86-95.18 53.04 42.38 37.36 97.54 56.78 55.15 19.42 111.28 19.42t111.28-19.42Zm-50.46-348.01q24.36-24.36 24.36-60.82t-24.36-60.82q-24.36-24.36-60.82-24.36t-60.82 24.36q-24.36 24.36-24.36 60.82t24.36 60.82q24.36 24.36 60.82 24.36t60.82-24.36ZM480-582.1Zm0 354.2Z"/></svg>