<?xml version="1.0" encoding="UTF-8"?>
<svg id="Calque_1" xmlns="http://www.w3.org/2000/svg" version="1.1" viewBox="0 0 170.25 165.09">
  <!-- Generator: Adobe Illustrator 30.5.1, SVG Export Plug-In . SVG Version: 2.1.4 Build 3)  -->
  <defs>
    <style>
      .st0 {
        fill: #e8d3c1;
      }
    </style>
  </defs>
  <g id="eQZ8HN">
    <g>
      <path class="st0" d="M27.07,111.56l-16,4.4c-.9.25-2.2-.12-2.72-.73s-.74-1.96-.4-2.8l5.41-13.5C-3.37,78.69-4.49,50.06,10.57,28.55c6.17-8.82,14.37-15.85,24.06-20.84C66.87-8.73,108.61,1.7,126.58,33.4c10.61,18.72,9.97,41.53-1.6,59.66-20.57,32.23-66.13,40.35-97.91,18.49ZM29.42,106.93c29.44,20.52,71.68,13.46,90.98-16.26,11.86-18.26,11.35-41.56-1.19-59.34-6.15-8.71-14.38-15.51-24.17-20.05C67.26-1.59,32.83,6.15,15.03,31.19.88,51.08,2.06,77.64,17.84,96.24c1.03,1.1,1.19,2.43.64,3.81l-3.81,9.52,12.23-3.35c.64-.18,1.74.16,2.52.7Z"/>
      <path class="st0" d="M69.86,130.26c-.5-1.81.12-3.24,1.48-3.69,1.78-.59,3.07.45,3.52,2.2,1.99,7.75,6.56,14.38,12.73,19.53,17.15,14.33,42.78,15.74,61.17,2.4l11.15,2.63-3.93-7.11c-.5-.9-.01-2.29.63-3.07,7.31-8.82,10.02-20.05,7.67-31.28-2.84-13.6-12.47-24.44-25.46-29.31-1.58-.59-2.42-1.92-1.98-3.3.59-1.81,2.22-2.17,3.9-1.52,14.46,5.55,25.24,17.58,28.52,32.76,2.68,12.39-.06,24.95-7.85,34.92l5.92,10.62c.46.82.38,2.09-.03,2.71-.52.78-1.74,1.38-2.69,1.15l-14.77-3.66c-20.4,13.56-48.7,11.29-66.76-4.84-6.39-5.71-10.91-12.77-13.21-21.12Z"/>
      <path class="st0" d="M28.16,49.34c7.23-1.61,13.92,3.01,15.4,9.92s-2.95,13.8-10.07,15.28c-6.63,1.38-13.45-2.83-15.07-9.63s2.41-13.94,9.74-15.57ZM28.89,54.45c-4.37,1.18-6.46,5.64-5.41,9.44,1.18,4.24,5.43,6.58,9.48,5.46s6.51-5.27,5.5-9.29-5.16-6.8-9.57-5.6Z"/>
      <path class="st0" d="M100.36,49.34c7.21-1.63,13.94,2.98,15.42,9.89s-2.92,13.82-10.08,15.3c-6.6,1.36-13.45-2.81-15.06-9.66s2.39-13.88,9.72-15.53ZM101.09,54.46c-4.36,1.19-6.4,5.66-5.38,9.42,1.16,4.29,5.45,6.56,9.48,5.48s6.52-5.35,5.49-9.35-5.19-6.75-9.59-5.55Z"/>
      <path class="st0" d="M64.08,49.38c7.22-1.72,14,2.83,15.56,9.72s-2.74,13.74-9.66,15.36-13.57-2.54-15.36-9.2,2.15-14.14,9.46-15.88ZM65.15,54.43c-4.4,1.12-6.67,5.53-5.53,9.52s5.29,6.53,9.51,5.4c3.91-1.05,6.39-5.12,5.48-9.13s-4.99-6.93-9.45-5.8Z"/>
    </g>
  </g>
</svg>