<svg width="244" height="24" viewBox="0 0 244 24" fill="none" xmlns="http://www.w3.org/2000/svg">
<path d="M1.19209e-07 0H19.2V3.6H4V8.2H15.2V11.8H4V20H1.19209e-07V0ZM28.2188 0V20H24.2188V0H28.2188ZM51.6188 9.76C52.4454 10.1867 53.0854 10.76 53.5388 11.48C53.9921 12.2 54.2188 13.04 54.2188 14C54.2188 15.8133 53.6721 17.2667 52.5788 18.36C51.4854 19.4533 50.0321 20 48.2188 20H34.2188V0H47.4188C49.2321 0 50.6854 0.546666 51.7787 1.64C52.8721 2.73333 53.4188 4.18667 53.4188 6C53.4188 7.6 52.8188 8.85333 51.6188 9.76ZM48.2188 11.8H38.2188V16.4H48.2188C48.8321 16.4 49.3121 16.2267 49.6588 15.88C50.0321 15.5067 50.2188 15.0133 50.2188 14.4V13.8C50.2188 13.1867 50.0321 12.7067 49.6588 12.36C49.3121 11.9867 48.8321 11.8 48.2188 11.8ZM47.4188 3.6H38.2188V8.2H47.4188C48.0321 8.2 48.5121 8.02667 48.8588 7.68C49.2321 7.30667 49.4188 6.81333 49.4188 6.2V5.6C49.4188 4.98667 49.2321 4.50667 48.8588 4.16C48.5121 3.78667 48.0321 3.6 47.4188 3.6ZM69.4141 20.2H83.4141V23.8H69.4141V20.2ZM81.4141 20.2H95.4141V23.8H81.4141V20.2ZM93.4141 20.2H107.414V23.8H93.4141V20.2ZM105.414 20.2H119.414V23.8H105.414V20.2ZM117.414 20.2H131.414V23.8H117.414V20.2ZM129.414 20.2H143.414V23.8H129.414V20.2ZM141.414 20.2H155.414V23.8H141.414V20.2ZM153.414 20.2H167.414V23.8H153.414V20.2ZM165.414 20.2H179.414V23.8H165.414V20.2ZM177.414 20.2H191.414V23.8H177.414V20.2ZM189.414 20.2H203.414V23.8H189.414V20.2ZM201.414 20.2H215.414V23.8H201.414V20.2ZM238.574 11.76C238.894 12.1333 239.134 12.4533 239.294 12.72L243.814 20H239.294L234.214 11.8H227.414V20H223.414V0H237.814C239.627 0 241.081 0.546666 242.174 1.64C243.267 2.73333 243.814 4.18667 243.814 6C243.814 7.6 243.334 8.92 242.374 9.96C241.441 11 240.174 11.6 238.574 11.76ZM237.814 3.6H227.414V8.2H237.814C238.427 8.2 238.907 8.02667 239.254 7.68C239.627 7.30667 239.814 6.81333 239.814 6.2V5.6C239.814 4.98667 239.627 4.50667 239.254 4.16C238.907 3.78667 238.427 3.6 237.814 3.6Z" fill="white"/>
</svg>
