<?xml version="1.0" encoding="UTF-8"?>
<svg id="Calque_1" xmlns="http://www.w3.org/2000/svg" version="1.1" viewBox="0 0 170.25 147.06">
  <!-- Generator: Adobe Illustrator 30.5.1, SVG Export Plug-In . SVG Version: 2.1.4 Build 3)  -->
  <defs>
    <style>
      .st0 {
        fill: #e8d3c1;
      }
    </style>
  </defs>
  <g id="Nmq70N">
    <g>
      <path class="st0" d="M141.13,130.5H62.82c-6.74-.02-11.84-5.44-11.74-12.08v-41.83s-21.92,0-21.92,0l-15.43,15.82c-.94.7-2.23.93-3.26.55-.76-.28-1.95-1.5-1.92-2.52l.3-14.2C3.41,74.74,0,70.17,0,64.51L.02,11.74C.03,4.93,5.43,0,12.11,0h95.31c6.31.07,11.68,4.95,11.68,11.37l.05,42.54,38.99-.03c6.72,0,12,4.94,12.11,11.75v53.13c-.01,5.53-3.66,9.93-8.83,11.4l.29,13.85c.02,1.1-.86,2.34-1.68,2.73-1.15.55-2.44.36-3.53-.43l-15.37-15.81ZM26.78,70.92h80.63c3.39,0,6.06-2.69,6.06-6.04l.02-52.79c0-3.51-2.41-6.41-6.09-6.4H11.41c-3.01.01-5.7,2.74-5.7,5.69v53.84c0,3.45,3.22,5.75,6.27,5.73h2.62s-.21,12.62-.21,12.62l12.39-12.65ZM155.84,137.45l-.21-12.61h2.93c3.26-.12,5.98-2.64,5.98-6.07v-52.79c.01-3.51-2.41-6.4-6.04-6.4h-39.32s-.02,5.35-.02,5.35c-.1,6.41-5.14,11.66-11.72,11.66h-50.68s0,41.82,0,41.82c0,3.58,2.41,6.32,6.08,6.41h80.66s12.36,12.62,12.36,12.62Z"/>
      <path class="st0" d="M56.77,54.1v-6.95c0-3.66,2.5-6.78,5.95-7.84,5.7-1.76,9.09-7.29,8.02-13.05s-6.21-9.64-12-9.19-10.44,5.22-10.5,11.3c-.01,1.63-1.24,2.75-2.68,2.84-1.3.08-2.9-.87-2.95-2.49-.25-8.82,6.41-16.14,14.82-17.21,8.81-1.12,16.9,4.7,18.77,13.24,1.89,8.62-3.13,17.29-11.69,19.92-1.26.39-2.1,1.56-2.1,2.83v6.44c0,1.61-1.26,2.73-2.68,2.81-1.28.08-2.97-.87-2.97-2.64Z"/>
      <path class="st0" d="M58.84,59.74c1.73-.42,3.14.58,3.48,1.89.41,1.58-.49,3.1-1.97,3.5s-2.9-.36-3.4-1.67c-.58-1.48.07-3.28,1.89-3.73Z"/>
      <polygon class="st0" points="91.69 98.53 95.66 94.44 105.09 103.86 137.11 74.5 140.9 78.73 104.9 111.74 91.69 98.53"/>
    </g>
  </g>
</svg>